<svg xmlns="http://www.w3.org/2000/svg" xmlns:xlink="http://www.w3.org/1999/xlink" viewBox="0 0 135 151">
  <defs>
    <clipPath id="clip-iPhone_14_Pro_Max_1">
      <rect width="135" height="151"/>
    </clipPath>
  </defs>
  <g id="iPhone_14_Pro_Max_1" data-name="iPhone 14 Pro Max – 1" clip-path="url(#clip-iPhone_14_Pro_Max_1)">
    <path id="Path_1" data-name="Path 1" d="M187.545,306.837v-2.952c0-1.051-.063-2.915,0-5.742.235-10.511,0-23.61,0-23.61a21.915,21.915,0,0,0-6.589-17.335c4.236-.863,37.65-1.726,43.69-34.9,4.942-29.257-9.02-39.847-9.02-39.847s5.1-11.217-.863-26.12c-6.118-2.353-18.668,4.863-26.9,10.04-11.138-3.53-31.454-5.491-49.024,0-7.78-4.69-16.129-10.65-27.14-10.119-3.27,8.954-3.693,18.367-.857,26.029-8.085,7.9-12.972,22.144-8.237,43.075,5.643,20.943,20.376,29.433,42.7,31.725-5.007,4.056-5.984,11.723-6.165,12.87-.6.905-8.931,3.639-15,2.354a18.2,18.2,0,0,1-11.121-6.68c-2.274-2.646-5.881-11.064-14.395-13.316-3.405-.934-7.25-.192-7.607,1.263s2.674,3.9,4.721,4.978c.8.578,5.137,3.271,9.943,13.86,1.162,3.274,5.123,11.355,18.115,12.411a62.575,62.575,0,0,0,14.814-.951c.053,2.4.182,18.121.182,18.121v4.964C148.741,306.951,187.545,306.837,187.545,306.837Z" transform="translate(-90.985 -155.869)" fill="#fff"/>
  </g>
</svg>
