<svg xmlns="http://www.w3.org/2000/svg" xmlns:xlink="http://www.w3.org/1999/xlink"  viewBox="0 0 211 192">
  <defs>
    <clipPath id="clip-iPhone_14_Pro_Max_1">
      <rect width="211" height="192"/>
    </clipPath>
  </defs>
  <g id="iPhone_14_Pro_Max_1" data-name="iPhone 14 Pro Max – 1" clip-path="url(#clip-iPhone_14_Pro_Max_1)">
    <g id="Ellipse_1" data-name="Ellipse 1" transform="translate(16.763)" fill="none" stroke="#089cda" stroke-width="13">
      <circle cx="64" cy="64" r="64" stroke="none"/>
      <circle cx="64" cy="64" r="57.5" fill="none"/>
    </g>
    <g id="Subtraction_1" data-name="Subtraction 1" transform="translate(7.763 -8)" fill="none">
      <path d="M139,200a63.947,63.947,0,0,1-64-64,64.789,64.789,0,0,1,.636-9.055,63.828,63.828,0,0,0,51.729-53.889A64.568,64.568,0,0,1,139,72a64,64,0,1,1,0,128Z" stroke="none"/>
      <path d="M 138.9996185302734 186.9997863769531 C 145.8904418945312 186.9997863769531 152.5682373046875 185.6531677246094 158.8475341796875 182.997314453125 C 164.9190673828125 180.4293518066406 170.3746185302734 176.7502899169922 175.0627136230469 172.0623168945312 C 179.7507019042969 167.3744354248047 183.4298248291016 161.9189605712891 185.9978485107422 155.8475189208984 C 188.6537628173828 149.5683135986328 190.0004119873047 142.8906097412109 190.0004119873047 135.9999084472656 C 190.0004119873047 129.1094055175781 188.6537628173828 122.4318237304688 185.9978790283203 116.152702331543 C 183.4298248291016 110.0812301635742 179.7506713867188 104.625732421875 175.0626220703125 99.93772888183594 C 170.3745880126953 95.24973297119141 164.9190368652344 91.57064056396484 158.8473815917969 89.00258636474609 C 152.2959289550781 86.23153686523438 145.291748046875 84.88330841064453 138.1033172607422 85.00776672363281 C 131.1597595214844 109.6642303466797 112.3666000366211 129.2416381835938 88.01307678222656 137.1871032714844 C 88.15904998779297 143.6575317382812 89.49921417236328 149.9297485351562 92.00223541259766 155.8475036621094 C 94.57029724121094 161.9190216064453 98.24941253662109 167.3744964599609 102.937385559082 172.0624084472656 C 107.6253280639648 176.7503204345703 113.0807952880859 180.4293518066406 119.1522979736328 182.9973754882812 C 125.4313812255859 185.6531677246094 132.1090087890625 186.9997863769531 138.9996185302734 186.9997863769531 M 138.9996185302734 199.9997863769531 C 130.3597717285156 199.9997863769531 121.9783248901367 198.3076782226562 114.0881500244141 194.9704437255859 C 106.4670867919922 191.7470245361328 99.6226806640625 187.1324310302734 93.74503326416016 181.2548217773438 C 87.86732482910156 175.377197265625 83.25267791748047 168.5327911376953 80.02920532226562 160.9117279052734 C 76.69188690185547 153.0214996337891 74.99971008300781 144.6399383544922 74.99971008300781 135.9999084472656 C 74.99971008300781 132.9694976806641 75.213623046875 129.9228515625 75.63547515869141 126.9446105957031 C 102.7152404785156 121.9704666137695 123.5030288696289 100.314323425293 127.3640594482422 73.05525970458984 C 131.1775054931641 72.35475921630859 135.0919799804688 72 138.9996185302734 72 C 147.6396484375 72 156.021240234375 73.69217681884766 163.9115905761719 77.02952575683594 C 171.5327301025391 80.25296783447266 178.3772430419922 84.86761474609375 184.2549743652344 90.74532318115234 C 190.1327667236328 96.62302398681641 194.7474365234375 103.4674377441406 197.9709167480469 111.0884704589844 C 201.3082427978516 118.9786758422852 203.0004119873047 127.3601150512695 203.0004119873047 135.9999084472656 C 203.0004119873047 144.6399383544922 201.3082427978516 153.0214691162109 197.9709167480469 160.9117279052734 C 194.7474365234375 168.5327911376953 190.1327667236328 175.3771667480469 184.2549743652344 181.2548217773438 C 178.3772430419922 187.1324310302734 171.5327301025391 191.7470550537109 163.9115905761719 194.9704437255859 C 156.021240234375 198.3076782226562 147.6396484375 199.9997863769531 138.9996185302734 199.9997863769531 Z" stroke="none" fill="#089cda"/>
    </g>
    <path id="Path_1" data-name="Path 1" d="M121.755,339.241s-19.518,13.687-19.518,44.613,23.468,52.745,45.077,59.716c10.224,3.485,16.73,2.324,16.73,2.324s5.577.506,5.577-5.344a5.778,5.778,0,0,0-5.577-6.041s-47.168-4.647-49.957-50.654c0-20.933,12.083-31.136,12.083-31.136s5.809-2.788,2.788-9.294S121.755,339.241,121.755,339.241Z" transform="translate(-102.237 -263)" fill="#089cda"/>
  </g>
</svg>
